HIERARCHY
ROOT Hips
{
	OFFSET -3.958830 18.904000 13.208200
	CHANNELS 6 Xposition Yposition Zposition Zrotation Yrotation Xrotation 
	JOINT LHipJoint
	{
		OFFSET 0.000000 0.000000 0.000000
		CHANNELS 3 Zrotation Yrotation Xrotation
		JOINT LeftUpLeg
		{
			OFFSET 1.800000 -1.400000 0.085000
			CHANNELS 3 Zrotation Yrotation Xrotation
			JOINT LeftLeg
			{
				OFFSET 2.215000 -6.000000 0.000000
				CHANNELS 3 Zrotation Yrotation Xrotation
				JOINT LeftFoot
				{
					OFFSET 2.500000 -6.900000 0.000000
					CHANNELS 3 Zrotation Yrotation Xrotation
					JOINT LeftToeBase
					{
						OFFSET 0.200000 -0.500000 1.950000
						CHANNELS 3 Zrotation Yrotation Xrotation
						End Site
						{
							OFFSET 0.000000 0.000000 0.000000
						}
					}
				}
			}
		}
	}
	JOINT RHipJoint
	{
		OFFSET 0.000000 0.000000 0.000000
		CHANNELS 3 Zrotation Yrotation Xrotation
		JOINT RightUpLeg
		{
			OFFSET -1.800000 -1.400000 0.085000
			CHANNELS 3 Zrotation Yrotation Xrotation
			JOINT RightLeg
			{
				OFFSET -2.215000 -6.000000 0.000000
				CHANNELS 3 Zrotation Yrotation Xrotation
				JOINT RightFoot
				{
					OFFSET -2.500000 -6.900000 0.000000
					CHANNELS 3 Zrotation Yrotation Xrotation
					JOINT RightToeBase
					{
						OFFSET -0.200000 -0.500000 1.950000
						CHANNELS 3 Zrotation Yrotation Xrotation
						End Site
						{
							OFFSET 0.000000 0.000000 0.000000
						}
					}
				}
			}
		}
	}
	JOINT LowerBack
	{
		OFFSET 0.000000 0.000000 0.000000
		CHANNELS 3 Zrotation Yrotation Xrotation
		JOINT Spine
		{
			OFFSET -0.087000 1.940000 -0.288900
			CHANNELS 3 Zrotation Yrotation Xrotation
			JOINT Spine1
			{
				OFFSET 0.000000 1.950000 0.060000
				CHANNELS 3 Zrotation Yrotation Xrotation
				JOINT Neck
				{
					OFFSET 0.000000 0.000000 0.000000
					CHANNELS 3 Zrotation Yrotation Xrotation
					JOINT Neck1
					{
						OFFSET 0.000000 1.600000 0.340000
						CHANNELS 3 Zrotation Yrotation Xrotation
						JOINT Head
						{
							OFFSET 0.000000 1.667000 -0.240000
							CHANNELS 3 Zrotation Yrotation Xrotation
							End Site
							{
								OFFSET 0.000000 0.000000 0.000000
							}
						}
					}
				}
				JOINT LeftShoulder
				{
					OFFSET 0.000000 0.000000 0.000000
					CHANNELS 3 Zrotation Yrotation Xrotation
					JOINT LeftArm
					{
						OFFSET 2.700000 1.550000 -0.730000
						CHANNELS 3 Zrotation Yrotation Xrotation
						JOINT LeftForeArm
						{
							OFFSET 5.450000 0.000000 0.000000
							CHANNELS 3 Zrotation Yrotation Xrotation
							JOINT LeftHand
							{
								OFFSET 3.450000 0.000000 0.000000
								CHANNELS 3 Zrotation Yrotation Xrotation
								JOINT LeftHandIndex1
								{
									OFFSET 0.750000 0.000000 0.000000
									CHANNELS 3 Zrotation Yrotation Xrotation
									End Site
									{
										OFFSET 0.000000 0.000000 0.000000
									}
								}
							}
						}
					}
				}
				JOINT RightShoulder
				{
					OFFSET 0.000000 0.000000 0.000000
					CHANNELS 3 Zrotation Yrotation Xrotation
					JOINT RightArm
					{
						OFFSET -2.700000 1.550000 -0.730000
						CHANNELS 3 Zrotation Yrotation Xrotation
						JOINT RightForeArm
						{
							OFFSET -5.450000 0.000000 0.000000
							CHANNELS 3 Zrotation Yrotation Xrotation
							JOINT RightHand
							{
								OFFSET -3.450000 0.000000 0.000000
								CHANNELS 3 Zrotation Yrotation Xrotation
								JOINT RightHandIndex1
								{
									OFFSET -0.750000 0.000000 0.000000
									CHANNELS 3 Zrotation Yrotation Xrotation
									End Site
									{
										OFFSET 0.000000 0.000000 0.000000
									}
								}
							}
						}
					}
				}
			}
		}
	}
}
MOTION
Frames: 8
Frame Time: 0.016667
-1.188350 17.250930 0.996950 -4.253730 1.261704 -7.194634 -14.555753 12.742686 2.826965 1.492175 0.312421 -25.403296 -0.185470 4.313725 16.443680 -0.852164 2.920409 3.658873 0.385910 -0.083960 0.269160 18.655320 -12.454546 3.338626 2.806359 0.375251 0.085437 0.819777 -5.415866 24.104887 -0.657946 -4.946923 2.921289 -0.039190 0.332970 0.173720 -5.011361 2.202979 -7.689112 19.819841 1.365021 32.755139 -13.996568 9.480834 13.626600 7.821030 -4.882278 -11.901875 -6.516771 2.101157 38.072951 5.163440 -3.910650 -17.138840 -20.886915 -9.375786 10.161419 -50.810596 13.736236 -16.222641 -134.549197 -67.544185 93.947577 -3.504084 3.169089 0.769830 -0.010980 -0.049730 0.225950 5.542144 21.179021 3.577630 16.489230 24.720932 -14.960524 -14.744118 68.019263 -11.243662 1.559995 -1.296417 -0.301340 0.359110 0.059720 -0.211890 
-1.211800 17.339500 0.997790 -4.099728 5.204434 -7.871642 -14.615761 12.834512 2.871946 0.666550 -0.399252 -24.808761 0.553220 4.308584 18.723992 -0.804574 3.024614 3.589296 0.443510 -0.009630 0.329350 18.608198 -12.294059 3.313456 3.224687 1.306414 -1.394508 1.955481 -5.942797 27.869707 -0.758486 -5.154768 2.818258 -0.031770 0.231510 0.171130 -4.970140 1.790299 -7.733568 19.110937 -0.237774 34.447427 -14.383265 7.771786 13.497466 7.289311 -3.875472 -12.088087 -5.686714 1.023500 39.759664 6.467550 -3.991250 -20.053330 -21.577744 -10.995881 10.066398 -51.268278 10.278641 -15.448375 -148.716680 -66.417172 110.994303 -3.377161 3.237103 0.826150 -0.088740 0.033090 0.219980 7.170514 20.895653 4.657051 21.659832 22.114099 -15.260293 1.961239 73.143699 -2.859220 1.615492 -1.480015 -0.260870 0.326370 0.008220 -0.226890 
-1.251140 17.416110 0.992200 -4.260121 8.498353 -7.984775 -14.652359 12.847083 2.887885 0.407682 -1.088520 -25.411472 2.159805 4.352203 23.133203 -0.770470 3.464730 3.416693 0.475210 0.014290 0.374560 18.598747 -12.110365 3.339477 3.707203 3.222748 -4.726380 3.784605 -7.039549 34.049541 -0.894567 -5.684145 2.615606 -0.022520 0.199120 0.164040 -5.008330 1.561344 -7.801544 19.031569 -1.739634 35.647540 -15.011144 6.337075 12.992211 6.695040 -3.463976 -12.166749 -5.817344 0.280143 41.042363 7.270110 -3.981900 -22.014940 -21.808316 -12.100565 9.380244 -51.107053 5.566445 -13.427770 -159.984612 -64.729439 126.058013 -3.343941 3.231746 0.887160 -0.124400 0.073990 0.221920 8.459355 20.557176 5.883644 28.561074 20.327772 -14.804850 18.301058 73.553464 6.797811 1.680198 -1.563992 -0.272350 0.347340 -0.011490 -0.250470 
-1.293660 17.464600 0.989450 -4.699417 11.302771 -7.794526 -14.704886 12.801397 2.886094 0.895113 -1.799306 -26.371065 3.880439 4.334868 27.881940 -0.686211 4.057782 3.169314 0.488990 0.036530 0.413700 18.593919 -11.760966 3.482934 3.538937 5.947209 -9.442819 6.912927 -9.457341 42.059849 -1.157935 -6.745370 2.225809 -0.024760 0.155100 0.160930 -5.007703 1.223690 -7.972405 19.170564 -3.049586 36.536999 -15.495573 5.184219 11.774284 6.179298 -3.042841 -12.349074 -6.149439 -0.667546 43.334333 7.651490 -4.002060 -23.495820 -22.752100 -13.611095 8.626084 -50.475677 0.971244 -11.956173 -166.556943 -64.379232 136.713039 -3.339410 3.165220 0.929770 -0.161100 0.125660 0.204530 10.230067 20.739069 7.186901 35.806033 17.607888 -14.771563 28.456850 70.964560 11.891000 1.786399 -1.523837 -0.264550 0.357530 -0.020470 -0.265400 
-1.339050 17.489380 0.986310 -4.913430 12.709894 -7.682168 -14.766123 12.779328 2.828510 2.253797 -2.262575 -26.609598 4.522299 4.607428 31.939345 -0.608778 4.733676 2.887816 0.509550 0.055380 0.437230 18.589759 -11.295371 3.732180 3.129033 8.538853 -14.089371 9.116478 -12.489354 50.556821 -1.532246 -8.158730 1.757076 -0.026660 0.119390 0.162720 -4.929081 0.681495 -8.174885 18.687073 -3.970160 37.855098 -15.473536 4.451720 10.376568 5.618327 -3.914906 -12.794162 -9.195945 -0.284731 46.207633 8.908980 -4.183890 -25.216060 -23.658300 -15.057144 7.832610 -50.771761 -3.246145 -11.386321 -172.648651 -65.397395 147.122316 -3.315750 3.083072 0.994180 -0.203950 0.174060 0.191400 12.145062 22.097987 8.628188 41.936562 14.043265 -15.684473 34.966758 67.035875 13.799862 1.865636 -1.444509 -0.260050 0.372830 -0.015870 -0.280160 
-1.372850 17.473450 0.990540 -5.596677 13.511670 -7.428568 -14.807342 12.637674 2.736260 4.212750 -2.675667 -27.137159 4.999174 4.949726 35.775814 -0.547056 5.445634 2.596113 0.516680 0.070950 0.434540 18.637232 -10.758889 4.088356 3.076637 11.002633 -19.464202 10.011803 -16.234602 60.616004 -2.020358 -10.006586 1.193997 -0.011720 0.103040 0.145650 -4.908600 0.244080 -8.406495 19.097750 -4.881210 38.823855 -15.540451 3.898485 8.431685 4.996687 -4.946071 -12.719599 -12.666807 0.223516 48.048558 10.424910 -4.578290 -26.628860 -25.200548 -15.578837 6.401533 -49.100312 -7.293435 -10.158973 -175.556741 -66.867343 153.646814 -3.300260 3.003612 1.041970 -0.236380 0.195710 0.178550 14.784724 22.468748 9.650695 47.597959 9.757387 -16.988430 37.407137 63.389742 13.386410 1.908884 -1.373656 -0.275860 0.401870 0.001130 -0.290580 
-1.411880 17.424780 0.994570 -6.066968 14.887411 -7.218231 -14.867176 12.488603 2.701480 6.428230 -3.326709 -27.569557 4.952391 5.388179 39.161954 -0.504454 6.154511 2.316683 0.551660 0.087350 0.458020 18.660666 -10.228938 4.377509 2.282553 12.367522 -24.918161 9.752638 -20.811574 71.169461 -2.583584 -12.106668 0.607975 0.014640 0.084330 0.142840 -4.836323 -0.293452 -8.633106 18.891855 -5.663354 39.548815 -15.108407 3.071869 6.311827 4.398766 -5.768625 -12.120830 -15.993564 0.731831 49.623874 11.858410 -4.896220 -27.769050 -28.577812 -15.641887 4.627429 -46.455322 -11.737580 -8.316711 175.080887 -68.008939 169.740782 -3.273527 3.000933 1.099100 -0.266030 0.210860 0.179630 19.192677 21.891185 10.226638 50.776931 4.868573 -18.244625 38.423530 60.533942 12.905221 1.903138 -1.347992 -0.297530 0.415130 0.002740 -0.315360 
-1.455150 17.336150 1.006290 -5.962182 16.112495 -7.298155 -14.928275 12.484235 2.578089 7.985763 -3.672541 -26.654975 4.959631 5.576724 40.410570 -0.504296 6.490821 2.200786 0.564310 0.080790 0.468310 18.642196 -9.830227 4.617682 0.518912 12.837709 -30.023804 7.875784 -25.499271 82.464070 -3.158319 -14.283094 0.072093 0.027230 0.101030 0.147770 -4.708207 -0.876590 -8.778099 17.502646 -5.912673 40.665846 -14.129460 2.116376 4.180955 3.643068 -6.244758 -11.229685 -18.446810 1.308304 50.279688 13.440260 -4.722130 -28.752980 -32.179351 -15.537292 2.850919 -42.663485 -15.842537 -6.232406 164.461998 -67.729558 -172.719432 -3.296651 2.998697 1.144660 -0.272480 0.216440 0.187300 24.177935 20.671880 10.549404 51.114417 -0.042866 -19.060809 40.844693 58.434851 13.492139 1.876535 -1.334090 -0.327770 0.442970 0.011910 -0.330610 
